<svg width="28" height="28" viewBox="0 0 28 28" fill="none" xmlns="http://www.w3.org/2000/svg">
<path opacity="0.4" d="M23.3337 9.62467V20.9997C23.3337 24.4997 21.2453 25.6663 18.667 25.6663H9.33366C6.75533 25.6663 4.66699 24.4997 4.66699 20.9997V9.62467C4.66699 5.83301 6.75533 4.95801 9.33366 4.95801C9.33366 5.68134 9.62529 6.33467 10.1036 6.813C10.582 7.29134 11.2353 7.58301 11.9587 7.58301H16.042C17.4887 7.58301 18.667 6.40467 18.667 4.95801C21.2453 4.95801 23.3337 5.83301 23.3337 9.62467Z" fill="#171717" fill-opacity="0.6"/>
<path d="M18.6663 4.95801C18.6663 6.40467 17.488 7.58301 16.0413 7.58301H11.958C11.2347 7.58301 10.5813 7.29134 10.103 6.813C9.62464 6.33467 9.33301 5.68134 9.33301 4.95801C9.33301 3.51134 10.5113 2.33301 11.958 2.33301H16.0413C16.7647 2.33301 17.418 2.62468 17.8964 3.10301C18.3747 3.58135 18.6663 4.23467 18.6663 4.95801Z" fill="#171717" fill-opacity="0.6"/>
<path d="M14.0007 16.041H9.33398C8.85565 16.041 8.45898 15.6443 8.45898 15.166C8.45898 14.6877 8.85565 14.291 9.33398 14.291H14.0007C14.479 14.291 14.8757 14.6877 14.8757 15.166C14.8757 15.6443 14.479 16.041 14.0007 16.041Z" fill="#171717" fill-opacity="0.6"/>
<path d="M18.6673 20.709H9.33398C8.85565 20.709 8.45898 20.3123 8.45898 19.834C8.45898 19.3557 8.85565 18.959 9.33398 18.959H18.6673C19.1457 18.959 19.5423 19.3557 19.5423 19.834C19.5423 20.3123 19.1457 20.709 18.6673 20.709Z" fill="#171717" fill-opacity="0.6"/>
</svg>
