<svg width="20" height="20" viewBox="0 0 20 20" fill="none" xmlns="http://www.w3.org/2000/svg">
<path opacity="0.4" d="M10 20C15.5228 20 20 15.5228 20 10C20 4.47715 15.5228 0 10 0C4.47715 0 0 4.47715 0 10C0 15.5228 4.47715 20 10 20Z" fill="#171717" fill-opacity="0.6"/>
<path d="M13.7087 13.9298C13.5787 13.9298 13.4487 13.8998 13.3287 13.8198L10.2287 11.9698C9.45867 11.5098 8.88867 10.4998 8.88867 9.60977V5.50977C8.88867 5.09977 9.22867 4.75977 9.63867 4.75977C10.0487 4.75977 10.3887 5.09977 10.3887 5.50977V9.60977C10.3887 9.96977 10.6887 10.4998 10.9987 10.6798L14.0987 12.5298C14.4587 12.7398 14.5687 13.1998 14.3587 13.5598C14.2087 13.7998 13.9587 13.9298 13.7087 13.9298Z" fill="#171717"/>
</svg>
