<svg width="29" height="30" viewBox="0 0 29 30" fill="none" xmlns="http://www.w3.org/2000/svg">
<path d="M5.95005 14.9876H5.96188M14.2307 14.9876H14.2426M22.5114 14.9876H22.5233M7.133 14.9876C7.133 15.641 6.60338 16.1706 5.95005 16.1706C5.29672 16.1706 4.76709 15.641 4.76709 14.9876C4.76709 14.3343 5.29672 13.8047 5.95005 13.8047C6.60338 13.8047 7.133 14.3343 7.133 14.9876ZM15.4137 14.9876C15.4137 15.641 14.8841 16.1706 14.2307 16.1706C13.5774 16.1706 13.0478 15.641 13.0478 14.9876C13.0478 14.3343 13.5774 13.8047 14.2307 13.8047C14.8841 13.8047 15.4137 14.3343 15.4137 14.9876ZM23.6944 14.9876C23.6944 15.641 23.1648 16.1706 22.5114 16.1706C21.8581 16.1706 21.3285 15.641 21.3285 14.9876C21.3285 14.3343 21.8581 13.8047 22.5114 13.8047C23.1648 13.8047 23.6944 14.3343 23.6944 14.9876Z" stroke="#A1A1AA" stroke-width="2.36591" stroke-linecap="round" stroke-linejoin="round"/>
</svg>
