<svg width="19" height="20" viewBox="0 0 19 20" fill="none" xmlns="http://www.w3.org/2000/svg">
<path d="M11.6272 18.5133H7.1186C3.03827 18.5133 1.29492 16.7077 1.29492 12.4816V7.81194C1.29492 3.58588 3.03827 1.78027 7.1186 1.78027H8.62148C8.92957 1.78027 9.18506 2.04489 9.18506 2.36398C9.18506 2.68308 8.92957 2.94769 8.62148 2.94769H7.1186C3.65445 2.94769 2.42208 4.22407 2.42208 7.81194V12.4816C2.42208 16.0695 3.65445 17.3459 7.1186 17.3459H11.6272C15.0914 17.3459 16.3238 16.0695 16.3238 12.4816V10.9251C16.3238 10.606 16.5792 10.3413 16.8873 10.3413C17.1954 10.3413 17.4509 10.606 17.4509 10.9251V12.4816C17.4509 16.7077 15.7076 18.5133 11.6272 18.5133Z" fill="#1B84FF"/>
<path d="M6.74194 14.5744C6.28356 14.5744 5.86275 14.4032 5.55466 14.0919C5.18645 13.7105 5.02865 13.158 5.11131 12.5743L5.43443 10.2316C5.49454 9.78023 5.78009 9.19652 6.08818 8.87743L12.0095 2.74459C13.5049 1.19581 15.0228 1.19581 16.5182 2.74459C17.3373 3.59291 17.7055 4.4568 17.6303 5.32069C17.5627 6.02114 17.202 6.70603 16.5182 7.40648L10.5968 13.5393C10.2887 13.8584 9.72516 14.1542 9.28933 14.2164L7.02749 14.5511C6.9298 14.5744 6.83211 14.5744 6.74194 14.5744ZM12.8061 3.56956L6.88471 9.7024C6.74194 9.85028 6.57662 10.1927 6.54656 10.3951L6.22344 12.7377C6.19339 12.9634 6.23847 13.1502 6.35119 13.2669C6.4639 13.3837 6.64425 13.4304 6.86217 13.3992L9.12401 13.0646C9.31938 13.0334 9.65753 12.8622 9.79279 12.7143L15.7142 6.5815C16.2026 6.07562 16.4581 5.62422 16.4957 5.20395C16.5407 4.69807 16.2852 4.16106 15.7142 3.56178C14.5118 2.31654 13.6853 2.66676 12.8061 3.56956Z" fill="#1B84FF"/>
<path d="M15.2718 8.45737C15.2192 8.45737 15.1666 8.44959 15.1216 8.43403C13.1453 7.8581 11.5747 6.2315 11.0187 4.18462C10.936 3.87331 11.1089 3.55422 11.4094 3.46082C11.71 3.37521 12.0181 3.55422 12.1008 3.86553C12.5516 5.52326 13.8216 6.83855 15.4221 7.30552C15.7227 7.39113 15.8955 7.71801 15.8129 8.02932C15.7452 8.29394 15.5198 8.45737 15.2718 8.45737Z" fill="#1B84FF"/>
</svg>
