<svg width="19" height="20" viewBox="0 0 19 20" fill="none" xmlns="http://www.w3.org/2000/svg">
<path d="M11.6272 18.5123H7.1186C3.03827 18.5123 1.29492 16.7067 1.29492 12.4806V7.81096C1.29492 3.5849 3.03827 1.7793 7.1186 1.7793H8.62148C8.92957 1.7793 9.18506 2.04391 9.18506 2.36301C9.18506 2.6821 8.92957 2.94672 8.62148 2.94672H7.1186C3.65445 2.94672 2.42208 4.22309 2.42208 7.81096V12.4806C2.42208 16.0685 3.65445 17.3449 7.1186 17.3449H11.6272C15.0914 17.3449 16.3238 16.0685 16.3238 12.4806V10.9241C16.3238 10.605 16.5792 10.3404 16.8873 10.3404C17.1954 10.3404 17.4509 10.605 17.4509 10.9241V12.4806C17.4509 16.7067 15.7076 18.5123 11.6272 18.5123Z" fill="white"/>
<path d="M6.74194 14.5735C6.28356 14.5735 5.86275 14.4022 5.55466 14.0909C5.18645 13.7096 5.02865 13.157 5.11131 12.5733L5.43443 10.2307C5.49454 9.77925 5.78009 9.19554 6.08818 8.87645L12.0095 2.74361C13.5049 1.19484 15.0228 1.19484 16.5182 2.74361C17.3373 3.59194 17.7055 4.45583 17.6303 5.31972C17.5627 6.02017 17.202 6.70505 16.5182 7.4055L10.5968 13.5383C10.2887 13.8574 9.72516 14.1532 9.28933 14.2154L7.02749 14.5501C6.9298 14.5735 6.83211 14.5735 6.74194 14.5735ZM12.8061 3.56859L6.88471 9.70143C6.74194 9.8493 6.57662 10.1917 6.54656 10.3941L6.22344 12.7367C6.19339 12.9624 6.23847 13.1492 6.35119 13.2659C6.4639 13.3827 6.64425 13.4294 6.86217 13.3983L9.12401 13.0636C9.31938 13.0325 9.65753 12.8612 9.79279 12.7134L15.7142 6.58053C16.2026 6.07465 16.4581 5.62324 16.4957 5.20297C16.5407 4.69709 16.2852 4.16008 15.7142 3.56081C14.5118 2.31556 13.6853 2.66578 12.8061 3.56859Z" fill="white"/>
<path d="M15.2718 8.45737C15.2192 8.45737 15.1666 8.44959 15.1216 8.43403C13.1453 7.8581 11.5747 6.2315 11.0187 4.18462C10.936 3.87331 11.1089 3.55422 11.4094 3.46082C11.71 3.37521 12.0181 3.55422 12.1008 3.86553C12.5516 5.52326 13.8216 6.83855 15.4221 7.30552C15.7227 7.39113 15.8955 7.71801 15.8129 8.02932C15.7452 8.29394 15.5198 8.45737 15.2718 8.45737Z" fill="white"/>
</svg>
