<svg width="20" height="20" viewBox="0 0 20 20" fill="none" xmlns="http://www.w3.org/2000/svg">
<path d="M19.2699 7.17541C18.9799 6.71541 18.6699 6.28541 18.3499 5.88541C17.9799 5.41541 17.2799 5.37541 16.8599 5.79541L13.8599 8.79541C14.0799 9.45541 14.1199 10.2154 13.9199 11.0054C13.5699 12.4154 12.4299 13.5554 11.0199 13.9054C10.2299 14.1054 9.46995 14.0654 8.80995 13.8454C8.80995 13.8454 7.37995 15.2754 6.34995 16.3054C5.84995 16.8054 6.00995 17.6854 6.67995 17.9454C7.74995 18.3554 8.85995 18.5654 9.99995 18.5654C11.7799 18.5654 13.5099 18.0454 15.0899 17.0754C16.6999 16.0754 18.1499 14.6054 19.3199 12.7354C20.2699 11.2254 20.2199 8.68541 19.2699 7.17541Z" fill="#171717" fill-opacity="0.3"/>
<path d="M12.0201 7.97476L7.98014 12.0148C7.47014 11.4948 7.14014 10.7748 7.14014 9.99477C7.14014 8.42477 8.42014 7.13477 10.0001 7.13477C10.7801 7.13477 11.5001 7.46476 12.0201 7.97476Z" fill="#171717" fill-opacity="0.3"/>
<path d="M16.25 3.7448L12.86 7.1348C12.13 6.3948 11.12 5.9548 10 5.9548C7.76 5.9548 5.96 7.7648 5.96 9.9948C5.96 11.1148 6.41 12.1248 7.14 12.8548L3.76 16.2448H3.75C2.64 15.3448 1.62 14.1948 0.75 12.8348C-0.25 11.2648 -0.25 8.7148 0.75 7.1448C1.91 5.3248 3.33 3.8948 4.91 2.9148C6.49 1.9548 8.22 1.4248 10 1.4248C12.23 1.4248 14.39 2.2448 16.25 3.7448Z" fill="#171717" fill-opacity="0.3"/>
<path d="M12.8601 9.9952C12.8601 11.5652 11.5801 12.8552 10.0001 12.8552C9.94008 12.8552 9.89008 12.8552 9.83008 12.8352L12.8401 9.8252C12.8601 9.8852 12.8601 9.9352 12.8601 9.9952Z" fill="#171717" fill-opacity="0.3"/>
<path d="M19.7699 0.225C19.4699 -0.075 18.9799 -0.075 18.6799 0.225L0.229883 18.685C-0.0701172 18.985 -0.0701172 19.475 0.229883 19.775C0.379883 19.915 0.569883 19.995 0.769883 19.995C0.969883 19.995 1.15988 19.915 1.30988 19.765L19.7699 1.305C20.0799 1.005 20.0799 0.525 19.7699 0.225Z" fill="#171717" fill-opacity="0.3"/>
</svg>
