<svg width="17" height="17" viewBox="0 0 17 17" fill="none" xmlns="http://www.w3.org/2000/svg">
<path fill-rule="evenodd" clip-rule="evenodd" d="M6.70269 0C3.0009 0 0 3.0009 0 6.70269C0 10.4045 3.0009 13.4054 6.70269 13.4054C8.20824 13.4054 9.59786 12.909 10.7168 12.071L14.6434 15.9976C15.0174 16.3715 15.6236 16.3715 15.9976 15.9976C16.3715 15.6236 16.3715 15.0174 15.9976 14.6434L12.071 10.7168C12.909 9.59786 13.4054 8.20824 13.4054 6.70269C13.4054 3.0009 10.4045 0 6.70269 0ZM1.91505 6.70269C1.91505 4.05855 4.05855 1.91505 6.70269 1.91505C9.34683 1.91505 11.4903 4.05855 11.4903 6.70269C11.4903 9.34683 9.34683 11.4903 6.70269 11.4903C4.05855 11.4903 1.91505 9.34683 1.91505 6.70269Z" fill="white"/>
</svg>
