<svg width="130" height="130" viewBox="0 0 130 130" fill="none" xmlns="http://www.w3.org/2000/svg">
<rect x="9.86035" y="10.1406" width="110.28" height="110.28" rx="55.14" fill="#D1FADF"/>
<rect x="9.86035" y="10.1406" width="110.28" height="110.28" rx="55.14" stroke="#ECFDF3" stroke-width="18.38"/>
<path d="M87.9764 63.1674V65.2811C87.9735 70.2355 86.3693 75.0562 83.4028 79.0244C80.4364 82.9925 76.2667 85.8954 71.5156 87.3001C66.7645 88.7049 61.6867 88.5362 57.0393 86.8192C52.392 85.1023 48.4241 81.929 45.7275 77.7728C43.031 73.6165 41.7502 68.6999 42.0762 63.7563C42.4022 58.8127 44.3174 54.1068 47.5364 50.3406C50.7554 46.5745 55.1055 43.9497 59.9381 42.8579C64.7707 41.766 69.8267 42.2655 74.3522 44.282M87.9764 46.9011L65.0014 69.8991L58.1089 63.0066" stroke="#039855" stroke-width="4.595" stroke-linecap="round" stroke-linejoin="round"/>
</svg>
