<svg width="44" height="44" viewBox="0 0 44 44" fill="none" xmlns="http://www.w3.org/2000/svg">
<path d="M9.16732 27.5C5.11565 27.5 1.83398 30.7817 1.83398 34.8333C1.83398 36.2083 2.21899 37.51 2.89732 38.61C4.16232 40.7367 6.49065 42.1667 9.16732 42.1667C11.844 42.1667 14.1723 40.7367 15.4373 38.61C16.1156 37.51 16.5007 36.2083 16.5007 34.8333C16.5007 30.7817 13.219 27.5 9.16732 27.5ZM12.779 34.2283L8.87398 37.84C8.61732 38.0784 8.26899 38.2067 7.93899 38.2067C7.59065 38.2067 7.24232 38.0783 6.96732 37.8033L5.15232 35.9883C4.62065 35.4567 4.62065 34.5767 5.15232 34.045C5.68399 33.5133 6.56398 33.5133 7.09565 34.045L7.97565 34.925L10.909 32.2117C11.459 31.6983 12.339 31.735 12.8523 32.285C13.3656 32.835 13.329 33.715 12.779 34.2283Z" fill="#007C85"/>
<path d="M32.5429 12.9262C32.1029 12.8529 31.6446 12.8346 31.1679 12.8346H12.8346C12.3213 12.8346 11.8263 12.8713 11.3496 12.9446C11.6063 12.4313 11.9729 11.9547 12.4129 11.5147L18.3713 5.53797C20.8829 3.04464 24.9529 3.04464 27.4646 5.53797L30.6729 8.78289C31.8463 9.93789 32.4696 11.4046 32.5429 12.9262Z" fill="#007C85"/>
<path opacity="0.4" d="M40.3327 21.9987V31.1654C40.3327 36.6654 36.666 40.332 31.166 40.332H13.9877C14.556 39.8554 15.051 39.2687 15.436 38.6087C16.1143 37.5087 16.4993 36.207 16.4993 34.832C16.4993 30.7804 13.2177 27.4987 9.16602 27.4987C6.96602 27.4987 5.00435 28.4703 3.66602 29.992V21.9987C3.66602 17.012 6.67268 13.5287 11.3477 12.942C11.8243 12.8687 12.3193 12.832 12.8327 12.832H31.166C31.6427 12.832 32.101 12.8503 32.541 12.9237C37.271 13.4737 40.3327 16.9754 40.3327 21.9987Z" fill="#007C85"/>
<path d="M40.3327 22.918H34.8327C32.816 22.918 31.166 24.568 31.166 26.5846C31.166 28.6013 32.816 30.2513 34.8327 30.2513H40.3327" fill="#007C85"/>
</svg>
