<svg width="19" height="18" viewBox="0 0 19 18" fill="none" xmlns="http://www.w3.org/2000/svg">
<path d="M12.666 17.0625H6.33268C3.94185 17.0625 2.57227 15.765 2.57227 13.5V6.1875C2.57227 3.825 3.83893 2.625 6.33268 2.625C6.65727 2.625 6.92643 2.88 6.92643 3.1875C6.92643 3.4875 7.0531 3.7725 7.27477 3.9825C7.49643 4.1925 7.79727 4.3125 8.11393 4.3125H10.8848C11.5418 4.3125 12.0723 3.81 12.0723 3.1875C12.0723 2.88 12.3414 2.625 12.666 2.625C15.1598 2.625 16.4264 3.825 16.4264 6.1875V13.5C16.4264 15.765 15.0568 17.0625 12.666 17.0625ZM5.81808 3.765C4.56725 3.8625 3.75977 4.395 3.75977 6.1875V13.5C3.75977 15.165 4.57518 15.9375 6.33268 15.9375H12.666C14.4235 15.9375 15.2389 15.165 15.2389 13.5V6.1875C15.2389 4.395 14.4315 3.87 13.1806 3.765C12.9115 4.725 11.9852 5.4375 10.8848 5.4375H8.11393C7.4806 5.4375 6.88685 5.205 6.4356 4.7775C6.13477 4.4925 5.92891 4.1475 5.81808 3.765Z" fill="#191D23"/>
<path d="M10.8861 5.4375H8.11523C7.4819 5.4375 6.88815 5.205 6.4369 4.7775C5.98565 4.35 5.74023 3.7875 5.74023 3.1875C5.74023 1.95 6.80898 0.9375 8.11523 0.9375H10.8861C11.5194 0.9375 12.1131 1.17 12.5644 1.5975C13.0156 2.025 13.2611 2.5875 13.2611 3.1875C13.2611 4.425 12.1923 5.4375 10.8861 5.4375ZM8.11523 2.0625C7.45815 2.0625 6.92773 2.565 6.92773 3.1875C6.92773 3.4875 7.0544 3.7725 7.27607 3.9825C7.49774 4.1925 7.79857 4.3125 8.11523 4.3125H10.8861C11.5432 4.3125 12.0736 3.81 12.0736 3.1875C12.0736 2.8875 11.9469 2.6025 11.7252 2.3925C11.5036 2.1825 11.2027 2.0625 10.8861 2.0625H8.11523Z" fill="#191D23"/>
<path d="M9.50065 10.3125H6.33398C6.0094 10.3125 5.74023 10.0575 5.74023 9.75C5.74023 9.4425 6.0094 9.1875 6.33398 9.1875H9.50065C9.82523 9.1875 10.0944 9.4425 10.0944 9.75C10.0944 10.0575 9.82523 10.3125 9.50065 10.3125Z" fill="#191D23"/>
<path d="M12.6673 13.3125H6.33398C6.0094 13.3125 5.74023 13.0575 5.74023 12.75C5.74023 12.4425 6.0094 12.1875 6.33398 12.1875H12.6673C12.9919 12.1875 13.2611 12.4425 13.2611 12.75C13.2611 13.0575 12.9919 13.3125 12.6673 13.3125Z" fill="#191D23"/>
</svg>
