<svg width="24" height="25" viewBox="0 0 24 25" fill="none" xmlns="http://www.w3.org/2000/svg">
<path d="M16.4723 4.27438V2.7292C16.4723 2.3231 16.157 1.98633 15.7767 1.98633C15.3965 1.98633 15.0811 2.3231 15.0811 2.7292V4.21495H9.05269V2.7292C9.05269 2.3231 8.73736 1.98633 8.3571 1.98633C7.97685 1.98633 7.66151 2.3231 7.66151 2.7292V4.27438C5.15739 4.52201 3.94243 6.11671 3.75694 8.48401C3.73839 8.77125 3.96098 9.00897 4.22067 9.00897H19.9131C20.1821 9.00897 20.4047 8.76135 20.3769 8.48401C20.1914 6.11671 18.9764 4.52201 16.4723 4.27438Z" fill="#171717" fill-opacity="0.2"/>
<path d="M19.4864 10.4941H4.64718C4.13708 10.4941 3.71973 10.9399 3.71973 11.4846V17.5861C3.71973 20.5576 5.1109 22.5386 8.35698 22.5386H15.7766C19.0227 22.5386 20.4139 20.5576 20.4139 17.5861V11.4846C20.4139 10.9399 19.9965 10.4941 19.4864 10.4941ZM9.4792 18.7846C9.43283 18.8242 9.38646 18.8738 9.34008 18.9035C9.28444 18.9431 9.22879 18.9728 9.17314 18.9926C9.11749 19.0223 9.06185 19.0422 9.0062 19.0521C8.94128 19.062 8.88563 19.0719 8.82071 19.0719C8.70014 19.0719 8.57957 19.0422 8.46828 18.9926C8.34771 18.9431 8.25496 18.8738 8.16222 18.7846C7.99528 18.5964 7.89326 18.3389 7.89326 18.0814C7.89326 17.8238 7.99528 17.5663 8.16222 17.3781C8.25496 17.289 8.34771 17.2196 8.46828 17.1701C8.63522 17.0909 8.82071 17.0711 9.0062 17.1107C9.06185 17.1206 9.11749 17.1404 9.17314 17.1701C9.22879 17.1899 9.28444 17.2196 9.34008 17.2593C9.38646 17.2989 9.43283 17.3385 9.4792 17.3781C9.64614 17.5663 9.74816 17.8238 9.74816 18.0814C9.74816 18.3389 9.64614 18.5964 9.4792 18.7846ZM9.4792 15.3179C9.30298 15.4962 9.06185 15.6051 8.82071 15.6051C8.57957 15.6051 8.33843 15.4962 8.16222 15.3179C7.99528 15.1297 7.89326 14.8721 7.89326 14.6146C7.89326 14.3571 7.99528 14.0996 8.16222 13.9114C8.42191 13.634 8.82998 13.5449 9.17314 13.7034C9.29371 13.7529 9.39573 13.8222 9.4792 13.9114C9.64614 14.0996 9.74816 14.3571 9.74816 14.6146C9.74816 14.8721 9.64614 15.1297 9.4792 15.3179ZM12.7253 18.7846C12.5491 18.9629 12.3079 19.0719 12.0668 19.0719C11.8257 19.0719 11.5845 18.9629 11.4083 18.7846C11.2414 18.5964 11.1393 18.3389 11.1393 18.0814C11.1393 17.8238 11.2414 17.5663 11.4083 17.3781C11.7515 17.0116 12.3821 17.0116 12.7253 17.3781C12.8922 17.5663 12.9942 17.8238 12.9942 18.0814C12.9942 18.3389 12.8922 18.5964 12.7253 18.7846ZM12.7253 15.3179C12.6789 15.3575 12.6325 15.3971 12.5862 15.4367C12.5305 15.4764 12.4749 15.5061 12.4192 15.5259C12.3636 15.5556 12.3079 15.5754 12.2523 15.5853C12.1874 15.5952 12.1317 15.6051 12.0668 15.6051C11.8257 15.6051 11.5845 15.4962 11.4083 15.3179C11.2414 15.1297 11.1393 14.8721 11.1393 14.6146C11.1393 14.3571 11.2414 14.0996 11.4083 13.9114C11.4918 13.8222 11.5938 13.7529 11.7144 13.7034C12.0575 13.5449 12.4656 13.634 12.7253 13.9114C12.8922 14.0996 12.9942 14.3571 12.9942 14.6146C12.9942 14.8721 12.8922 15.1297 12.7253 15.3179ZM15.9714 18.7846C15.7951 18.9629 15.554 19.0719 15.3129 19.0719C15.0717 19.0719 14.8306 18.9629 14.6544 18.7846C14.4874 18.5964 14.3854 18.3389 14.3854 18.0814C14.3854 17.8238 14.4874 17.5663 14.6544 17.3781C14.9975 17.0116 15.6282 17.0116 15.9714 17.3781C16.1383 17.5663 16.2403 17.8238 16.2403 18.0814C16.2403 18.3389 16.1383 18.5964 15.9714 18.7846ZM15.9714 15.3179C15.925 15.3575 15.8786 15.3971 15.8322 15.4367C15.7766 15.4764 15.7209 15.5061 15.6653 15.5259C15.6097 15.5556 15.554 15.5754 15.4984 15.5853C15.4334 15.5952 15.3685 15.6051 15.3129 15.6051C15.0717 15.6051 14.8306 15.4962 14.6544 15.3179C14.4874 15.1297 14.3854 14.8721 14.3854 14.6146C14.3854 14.3571 14.4874 14.0996 14.6544 13.9114C14.7471 13.8222 14.8399 13.7529 14.9604 13.7034C15.1274 13.6241 15.3129 13.6043 15.4984 13.6439C15.554 13.6538 15.6097 13.6736 15.6653 13.7034C15.7209 13.7232 15.7766 13.7529 15.8322 13.7925C15.8786 13.8321 15.925 13.8717 15.9714 13.9114C16.1383 14.0996 16.2403 14.3571 16.2403 14.6146C16.2403 14.8721 16.1383 15.1297 15.9714 15.3179Z" fill="#171717" fill-opacity="0.2"/>
</svg>
