<svg width="28" height="26" viewBox="0 0 28 26" fill="none" xmlns="http://www.w3.org/2000/svg">
<path d="M19.5432 3.84383V2.15942C19.5432 1.71672 19.1466 1.34961 18.6682 1.34961C18.1899 1.34961 17.7932 1.71672 17.7932 2.15942V3.77905H10.2099V2.15942C10.2099 1.71672 9.81323 1.34961 9.3349 1.34961C8.85657 1.34961 8.4599 1.71672 8.4599 2.15942V3.84383C5.3099 4.11377 3.78157 5.85217 3.54824 8.43277C3.5249 8.7459 3.8049 9.00504 4.13157 9.00504H23.8716C24.2099 9.00504 24.4899 8.7351 24.4549 8.43277C24.2216 5.85217 22.6932 4.11377 19.5432 3.84383Z" fill="#071437" fill-opacity="0.6"/>
<path opacity="0.4" d="M23.3333 10.625C23.975 10.625 24.5 11.1109 24.5 11.7048V18.356C24.5 21.5953 22.75 23.7548 18.6667 23.7548H9.33333C5.25 23.7548 3.5 21.5953 3.5 18.356V11.7048C3.5 11.1109 4.025 10.625 4.66667 10.625H23.3333Z" fill="#071437" fill-opacity="0.6"/>
<path d="M9.91862 16.1974C9.61529 16.1974 9.31195 16.0786 9.09029 15.8842C8.88029 15.6791 8.75195 15.3984 8.75195 15.1176C8.75195 14.8369 8.88029 14.5562 9.09029 14.351C9.41695 14.0487 9.93029 13.9515 10.362 14.1242C10.5136 14.1782 10.642 14.2538 10.747 14.351C10.957 14.5562 11.0853 14.8369 11.0853 15.1176C11.0853 15.3984 10.957 15.6791 10.747 15.8842C10.5253 16.0786 10.222 16.1974 9.91862 16.1974Z" fill="#071437" fill-opacity="0.6"/>
<path d="M14.0007 16.1974C13.6973 16.1974 13.394 16.0786 13.1723 15.8842C12.9623 15.6791 12.834 15.3984 12.834 15.1176C12.834 14.8369 12.9623 14.5562 13.1723 14.351C13.2773 14.2538 13.4056 14.1782 13.5573 14.1242C13.989 13.9515 14.5023 14.0487 14.829 14.351C15.039 14.5562 15.1673 14.8369 15.1673 15.1176C15.1673 15.3984 15.039 15.6791 14.829 15.8842C14.7706 15.9274 14.7123 15.9706 14.654 16.0138C14.584 16.057 14.514 16.0894 14.444 16.111C14.374 16.1434 14.304 16.165 14.234 16.1758C14.1523 16.1866 14.0823 16.1974 14.0007 16.1974Z" fill="#071437" fill-opacity="0.6"/>
<path d="M18.0827 16.1986C17.7793 16.1986 17.476 16.0798 17.2543 15.8854C17.0443 15.6803 16.916 15.3996 16.916 15.1188C16.916 14.8381 17.0443 14.5574 17.2543 14.3522C17.371 14.255 17.4877 14.1794 17.6393 14.1254C17.8493 14.0391 18.0827 14.0175 18.316 14.0607C18.386 14.0715 18.456 14.093 18.526 14.1254C18.596 14.147 18.666 14.1795 18.736 14.2226C18.7944 14.2658 18.8527 14.309 18.911 14.3522C19.121 14.5574 19.2493 14.8381 19.2493 15.1188C19.2493 15.3996 19.121 15.6803 18.911 15.8854C18.8527 15.9286 18.7944 15.9718 18.736 16.015C18.666 16.0582 18.596 16.0906 18.526 16.1122C18.456 16.1446 18.386 16.1662 18.316 16.177C18.2343 16.1878 18.1527 16.1986 18.0827 16.1986Z" fill="#071437" fill-opacity="0.6"/>
<path d="M9.91862 19.9759C9.76695 19.9759 9.61529 19.9435 9.47529 19.8896C9.32362 19.8356 9.20695 19.76 9.09029 19.6628C8.88029 19.4576 8.75195 19.1769 8.75195 18.8962C8.75195 18.6154 8.88029 18.3347 9.09029 18.1296C9.20695 18.0324 9.32362 17.9568 9.47529 17.9028C9.68529 17.8164 9.91862 17.7948 10.152 17.838C10.222 17.8488 10.292 17.8704 10.362 17.9028C10.432 17.9244 10.502 17.9568 10.572 18C10.6303 18.0432 10.6886 18.0864 10.747 18.1296C10.957 18.3347 11.0853 18.6154 11.0853 18.8962C11.0853 19.1769 10.957 19.4576 10.747 19.6628C10.6886 19.706 10.6303 19.76 10.572 19.7923C10.502 19.8355 10.432 19.868 10.362 19.8896C10.292 19.9219 10.222 19.9435 10.152 19.9543C10.0703 19.9651 10.0003 19.9759 9.91862 19.9759Z" fill="#071437" fill-opacity="0.6"/>
<path d="M14.0007 19.9741C13.6973 19.9741 13.394 19.8553 13.1723 19.661C12.9623 19.4558 12.834 19.1751 12.834 18.8944C12.834 18.6136 12.9623 18.3329 13.1723 18.1278C13.604 17.7282 14.3973 17.7282 14.829 18.1278C15.039 18.3329 15.1673 18.6136 15.1673 18.8944C15.1673 19.1751 15.039 19.4558 14.829 19.661C14.6073 19.8553 14.304 19.9741 14.0007 19.9741Z" fill="#071437" fill-opacity="0.6"/>
<path d="M18.0827 19.9741C17.7793 19.9741 17.476 19.8553 17.2543 19.661C17.0443 19.4558 16.916 19.1751 16.916 18.8944C16.916 18.6136 17.0443 18.3329 17.2543 18.1278C17.686 17.7282 18.4793 17.7282 18.911 18.1278C19.121 18.3329 19.2493 18.6136 19.2493 18.8944C19.2493 19.1751 19.121 19.4558 18.911 19.661C18.6893 19.8553 18.386 19.9741 18.0827 19.9741Z" fill="#071437" fill-opacity="0.6"/>
</svg>
