<svg width="27" height="27" viewBox="0 0 27 27" fill="none" xmlns="http://www.w3.org/2000/svg">
<path d="M13.5 25.5938C6.82875 25.5938 1.40625 20.1712 1.40625 13.5C1.40625 6.82875 6.82875 1.40625 13.5 1.40625C20.1712 1.40625 25.5938 6.82875 25.5938 13.5C25.5938 20.1712 20.1712 25.5938 13.5 25.5938ZM13.5 3.09375C7.7625 3.09375 3.09375 7.7625 3.09375 13.5C3.09375 19.2375 7.7625 23.9062 13.5 23.9062C19.2375 23.9062 23.9062 19.2375 23.9062 13.5C23.9062 7.7625 19.2375 3.09375 13.5 3.09375Z" fill="#63B84D"/>
<path d="M11.9026 17.5263C11.6776 17.5263 11.4639 17.4363 11.3064 17.2788L8.12262 14.0951C7.79637 13.7688 7.79637 13.2288 8.12262 12.9026C8.44887 12.5763 8.98887 12.5763 9.31512 12.9026L11.9026 15.4901L17.6851 9.70758C18.0114 9.38133 18.5514 9.38133 18.8776 9.70758C19.2039 10.0338 19.2039 10.5738 18.8776 10.9001L12.4989 17.2788C12.3414 17.4363 12.1276 17.5263 11.9026 17.5263Z" fill="#63B84D"/>
</svg>
