<svg width="24" height="22" viewBox="0 0 24 22" fill="none" xmlns="http://www.w3.org/2000/svg">
<path d="M12.1594 0C5.76198 0 0.548828 4.939 0.548828 11C0.548828 17.061 5.76198 22 12.1594 22C18.5568 22 23.77 17.061 23.77 11C23.77 4.939 18.5568 0 12.1594 0ZM17.21 14.927C17.0475 15.191 16.7572 15.334 16.4553 15.334C16.3044 15.334 16.1534 15.301 16.0141 15.213L12.4148 13.178C11.5208 12.672 10.859 11.561 10.859 10.582V6.072C10.859 5.621 11.2538 5.247 11.7298 5.247C12.2058 5.247 12.6006 5.621 12.6006 6.072V10.582C12.6006 10.978 12.9489 11.561 13.3089 11.759L16.9081 13.794C17.3261 14.025 17.4654 14.531 17.21 14.927Z" fill="#171717" fill-opacity="0.3"/>
</svg>
