<svg width="35" height="35" viewBox="0 0 35 35" fill="none" xmlns="http://www.w3.org/2000/svg">
<path opacity="0.4" d="M29.7285 15.3173H25.6343C22.2768 15.3173 19.5427 12.5832 19.5427 9.22568V5.13151C19.5427 4.35234 18.9052 3.71484 18.126 3.71484H12.1193C7.75602 3.71484 4.22852 6.54818 4.22852 11.6057V24.1573C4.22852 29.2148 7.75602 32.0482 12.1193 32.0482H23.2543C27.6177 32.0482 31.1452 29.2148 31.1452 24.1573V16.734C31.1452 15.9548 30.5077 15.3173 29.7285 15.3173Z" fill="white"/>
<path d="M23.071 4.01237C22.4902 3.43154 21.4844 3.82821 21.4844 4.63571V9.57987C21.4844 11.6482 23.241 13.3624 25.3802 13.3624C26.726 13.3765 28.596 13.3765 30.1969 13.3765C31.0044 13.3765 31.4294 12.4274 30.8627 11.8607C28.8227 9.80654 25.1677 6.10904 23.071 4.01237Z" fill="white"/>
<path d="M18.0839 21.7342C17.673 21.3234 16.993 21.3234 16.5822 21.7342L15.5622 22.7542V16.8184C15.5622 16.2375 15.0805 15.7559 14.4997 15.7559C13.9189 15.7559 13.4372 16.2375 13.4372 16.8184V22.7542L12.4172 21.7342C12.0064 21.3234 11.3264 21.3234 10.9155 21.7342C10.5047 22.145 10.5047 22.825 10.9155 23.2359L13.7489 26.0692C13.763 26.0834 13.7772 26.0834 13.7772 26.0975C13.8622 26.1825 13.9755 26.2534 14.0889 26.31C14.2305 26.3525 14.358 26.3809 14.4997 26.3809C14.6414 26.3809 14.7689 26.3525 14.8964 26.2959C15.0239 26.2392 15.1372 26.1684 15.2505 26.0692L18.0839 23.2359C18.4947 22.825 18.4947 22.145 18.0839 21.7342Z" fill="white"/>
</svg>
