<svg width="44" height="45" viewBox="0 0 44 45" fill="none" xmlns="http://www.w3.org/2000/svg">
<path opacity="0.4" d="M39.856 17.7H3.66602V12.0375C3.66602 7.4625 7.29602 3.75 11.7693 3.75H16.041C19.0293 3.75 19.9643 4.74375 21.156 6.375L23.7227 9.8625C24.291 10.6313 24.3643 10.7438 25.4277 10.7438H30.5427C34.8877 10.725 38.591 13.65 39.856 17.7Z" fill="#007C85" fill-opacity="0.6"/>
<path d="M40.3143 20.3262C40.2777 19.4074 40.131 18.5449 39.856 17.7012H3.66602V31.2199C3.66602 36.7512 8.06602 41.2512 13.4743 41.2512H30.5243C35.9327 41.2512 40.3327 36.7512 40.3327 31.2199V20.7574C40.3327 20.6262 40.3327 20.4574 40.3143 20.3262ZM26.5827 30.4699H23.4844V33.7512C23.4844 34.5199 22.861 35.1574 22.1094 35.1574C21.3577 35.1574 20.7344 34.5199 20.7344 33.7512V30.4699H17.416C16.6643 30.4699 16.041 29.8324 16.041 29.0637C16.041 28.2949 16.6643 27.6574 17.416 27.6574H20.7344V24.3762C20.7344 23.6074 21.3577 22.9699 22.1094 22.9699C22.861 22.9699 23.4844 23.6074 23.4844 24.3762V27.6574H26.5827C27.3343 27.6574 27.9577 28.2949 27.9577 29.0637C27.9577 29.8324 27.3343 30.4699 26.5827 30.4699Z" fill="#007C85" fill-opacity="0.6"/>
</svg>
