<svg width="64" height="65" viewBox="0 0 64 65" fill="none" xmlns="http://www.w3.org/2000/svg">
<path d="M58.6667 37.6428V43.8449C58.6667 53.7033 52.8801 59.5803 43.1734 59.5803H20.8267C14.0267 59.5803 9.12005 56.6824 6.82672 51.5366L7.12005 51.3199L20.2401 42.3824C22.3734 40.9199 25.3867 41.0824 27.2801 42.7616L28.1867 43.5199C30.2667 45.3345 33.6267 45.3345 35.7067 43.5199L46.8001 33.8512C48.8801 32.0366 52.2401 32.0366 54.3201 33.8512L58.6667 37.6428Z" fill="#007C85"/>
<path opacity="0.4" d="M55.92 21.6641H48.08C44.6934 21.6641 42.6667 19.6057 42.6667 16.1661V8.20365C42.6667 7.12031 42.88 6.19948 43.2534 5.41406C43.2267 5.41406 43.2 5.41406 43.1734 5.41406H20.8267C11.12 5.41406 5.33337 11.2911 5.33337 21.1495V43.8453C5.33337 46.7974 5.84004 49.3703 6.82671 51.537L7.12004 51.3203L20.24 42.3828C22.3734 40.9203 25.3867 41.0828 27.28 42.762L28.1867 43.5203C30.2667 45.3349 33.6267 45.3349 35.7067 43.5203L46.8 33.8516C48.88 32.037 52.24 32.037 54.32 33.8516L58.6667 37.6432V21.1495C58.6667 21.1224 58.6667 21.0953 58.6667 21.0682C57.8934 21.4474 56.9867 21.6641 55.92 21.6641Z" fill="#007C85"/>
<path d="M23.9999 28.1124C27.5051 28.1124 30.3466 25.2265 30.3466 21.6665C30.3466 18.1066 27.5051 15.2207 23.9999 15.2207C20.4948 15.2207 17.6533 18.1066 17.6533 21.6665C17.6533 25.2265 20.4948 28.1124 23.9999 28.1124Z" fill="#007C85"/>
<path d="M55.92 2.70703H48.08C44.6934 2.70703 42.6667 4.76536 42.6667 8.20495V16.1674C42.6667 19.607 44.6934 21.6654 48.08 21.6654H55.92C59.3067 21.6654 61.3334 19.607 61.3334 16.1674V8.20495C61.3334 4.76536 59.3067 2.70703 55.92 2.70703ZM56.5067 11.6716C56.1867 11.9966 55.76 12.1591 55.3334 12.1591C54.9067 12.1591 54.48 11.9966 54.16 11.6716L53.68 11.1841V17.2508C53.68 18.1987 52.9334 18.957 52 18.957C51.0667 18.957 50.32 18.1987 50.32 17.2508V11.1841L49.84 11.6716C49.2 12.3216 48.1334 12.3216 47.4934 11.6716C46.8534 11.0216 46.8534 9.93828 47.4934 9.28828L50.8267 5.90286C50.96 5.76745 51.1467 5.65911 51.3334 5.57786C51.3867 5.55078 51.44 5.55078 51.4934 5.5237C51.6267 5.46953 51.76 5.44245 51.92 5.44245C51.9734 5.44245 52.0267 5.44245 52.08 5.44245C52.2667 5.44245 52.4267 5.46953 52.6134 5.55078C52.64 5.55078 52.64 5.55078 52.6667 5.55078C52.8534 5.63203 53.0134 5.74037 53.1467 5.87578C53.1734 5.90286 53.1734 5.90286 53.2 5.90286L56.5334 9.28828C57.1734 9.93828 57.1734 11.0216 56.5067 11.6716Z" fill="#007C85"/>
</svg>
