<svg width="37" height="36" viewBox="0 0 37 36" fill="none" xmlns="http://www.w3.org/2000/svg">
<path d="M24.4143 22.3027V28.1867C24.4143 30.6285 22.4432 32.5996 20.0014 32.5996H17.0594C14.6176 32.5996 12.6465 30.6285 12.6465 28.1867V22.3027H24.4143Z" fill="white"/>
<path d="M11.1738 10.5405V7.59849C11.1738 5.15666 13.1449 3.18555 15.5868 3.18555H21.4707C23.9125 3.18555 25.8836 5.15666 25.8836 7.59849V10.5405H11.1738Z" fill="white"/>
<path opacity="0.4" d="M27.3557 10.5371H9.70396C6.762 10.5371 5.29102 12.0081 5.29102 14.9501V22.305C5.29102 25.2469 6.762 26.7179 9.70396 26.7179H12.6459V22.305H24.4138V26.7179H27.3557C30.2977 26.7179 31.7687 25.2469 31.7687 22.305V14.9501C31.7687 12.0081 30.2977 10.5371 27.3557 10.5371ZM15.5879 17.5243H11.1749C10.5718 17.5243 10.0717 17.0241 10.0717 16.421C10.0717 15.8179 10.5718 15.3178 11.1749 15.3178H15.5879C16.191 15.3178 16.6911 15.8179 16.6911 16.421C16.6911 17.0241 16.191 17.5243 15.5879 17.5243Z" fill="white"/>
<path d="M16.6917 16.4177C16.6917 17.0208 16.1916 17.5209 15.5884 17.5209H11.1755C10.5724 17.5209 10.0723 17.0208 10.0723 16.4177C10.0723 15.8146 10.5724 15.3145 11.1755 15.3145H15.5884C16.1916 15.3145 16.6917 15.8146 16.6917 16.4177Z" fill="white"/>
<path d="M25.8853 23.4116H11.1755C10.5724 23.4116 10.0723 22.9114 10.0723 22.3083C10.0723 21.7052 10.5724 21.2051 11.1755 21.2051H25.8853C26.4884 21.2051 26.9886 21.7052 26.9886 22.3083C26.9886 22.9114 26.4884 23.4116 25.8853 23.4116Z" fill="white"/>
</svg>
