<svg width="20" height="19" viewBox="0 0 20 19" fill="none" xmlns="http://www.w3.org/2000/svg">
<path fill-rule="evenodd" clip-rule="evenodd" d="M8.18468 2.4707C5.16512 2.4707 2.71729 4.91854 2.71729 7.9381C2.71729 10.9577 5.16512 13.4055 8.18468 13.4055C9.41277 13.4055 10.5463 13.0006 11.459 12.317L14.662 15.52C14.967 15.825 15.4615 15.825 15.7665 15.52C16.0716 15.2149 16.0716 14.7204 15.7665 14.4154L12.5636 11.2124C13.2472 10.2997 13.6521 9.16619 13.6521 7.9381C13.6521 4.91854 11.2042 2.4707 8.18468 2.4707ZM4.2794 7.9381C4.2794 5.78127 6.02785 4.03282 8.18468 4.03282C10.3415 4.03282 12.09 5.78127 12.09 7.9381C12.09 10.0949 10.3415 11.8434 8.18468 11.8434C6.02785 11.8434 4.2794 10.0949 4.2794 7.9381Z" fill="#64748B"/>
</svg>
