<svg width="26" height="26" viewBox="0 0 26 26" fill="none" xmlns="http://www.w3.org/2000/svg">
<path opacity="0.4" d="M11.6456 2.65467C12.404 2.0155 13.6281 2.0155 14.3648 2.65467L16.0765 4.11717C16.4015 4.388 17.019 4.6155 17.4523 4.6155H19.294C20.4423 4.6155 21.3848 5.558 21.3848 6.70633V8.548C21.3848 8.98133 21.6123 9.588 21.8831 9.913L23.3456 11.6247C23.9848 12.383 23.9848 13.6072 23.3456 14.3438L21.8831 16.0555C21.6123 16.3805 21.3848 16.9872 21.3848 17.4205V19.2622C21.3848 20.4105 20.4423 21.353 19.294 21.353H17.4523C17.019 21.353 16.4123 21.5805 16.0873 21.8513L14.3756 23.3138C13.6173 23.953 12.3931 23.953 11.6565 23.3138L9.94479 21.8513C9.61979 21.5805 9.00229 21.353 8.57979 21.353H6.68396C5.53563 21.353 4.59312 20.4105 4.59312 19.2622V17.4097C4.59312 16.9872 4.37646 16.3697 4.10562 16.0555L2.64313 14.333C2.01479 13.5855 2.01479 12.3722 2.64313 11.6247L4.10562 9.90217C4.37646 9.57717 4.59312 8.9705 4.59312 8.548V6.71717C4.59312 5.56883 5.53563 4.62633 6.68396 4.62633H8.55813C8.99146 4.62633 9.59812 4.39883 9.92312 4.128L11.6456 2.65467Z" fill="#071437" fill-opacity="0.6"/>
<path d="M13.0003 18.276C12.4045 18.276 11.917 17.7885 11.917 17.1927C11.917 16.5969 12.3937 16.1094 13.0003 16.1094C13.5962 16.1094 14.0837 16.5969 14.0837 17.1927C14.0837 17.7885 13.607 18.276 13.0003 18.276Z" fill="#071437" fill-opacity="0.6"/>
<path d="M13 14.8635C12.5558 14.8635 12.1875 14.4951 12.1875 14.051V8.80762C12.1875 8.36345 12.5558 7.99512 13 7.99512C13.4442 7.99512 13.8125 8.36345 13.8125 8.80762V14.0401C13.8125 14.4951 13.455 14.8635 13 14.8635Z" fill="#071437" fill-opacity="0.6"/>
</svg>
