<svg width="24" height="24" viewBox="0 0 24 24" fill="none" xmlns="http://www.w3.org/2000/svg">
<path d="M16.7502 3.56049V2.00049C16.7502 1.59049 16.4102 1.25049 16.0002 1.25049C15.5902 1.25049 15.2502 1.59049 15.2502 2.00049V3.50049H8.75023V2.00049C8.75023 1.59049 8.41023 1.25049 8.00023 1.25049C7.59023 1.25049 7.25023 1.59049 7.25023 2.00049V3.56049C4.55023 3.81049 3.24023 5.42049 3.04023 7.81049C3.02023 8.10049 3.26023 8.34048 3.54023 8.34048H20.4602C20.7502 8.34048 20.9902 8.09049 20.9602 7.81049C20.7602 5.42049 19.4502 3.81049 16.7502 3.56049Z" fill="#071437" fill-opacity="0.6"/>
<path opacity="0.4" d="M20 9.83984C20.55 9.83984 21 10.2898 21 10.8398V16.9998C21 19.9998 19.5 21.9998 16 21.9998H8C4.5 21.9998 3 19.9998 3 16.9998V10.8398C3 10.2898 3.45 9.83984 4 9.83984H20Z" fill="#071437" fill-opacity="0.6"/>
<path d="M8.5 15.0004C8.24 15.0004 7.98 14.8904 7.79 14.7104C7.61 14.5204 7.5 14.2604 7.5 14.0004C7.5 13.7404 7.61 13.4804 7.79 13.2904C8.07 13.0104 8.51 12.9203 8.88 13.0803C9.01 13.1303 9.12 13.2004 9.21 13.2904C9.39 13.4804 9.5 13.7404 9.5 14.0004C9.5 14.2604 9.39 14.5204 9.21 14.7104C9.02 14.8904 8.76 15.0004 8.5 15.0004Z" fill="#071437" fill-opacity="0.6"/>
<path d="M12 15.0004C11.74 15.0004 11.48 14.8904 11.29 14.7104C11.11 14.5204 11 14.2604 11 14.0004C11 13.7404 11.11 13.4804 11.29 13.2904C11.38 13.2004 11.49 13.1303 11.62 13.0803C11.99 12.9203 12.43 13.0104 12.71 13.2904C12.89 13.4804 13 13.7404 13 14.0004C13 14.2604 12.89 14.5204 12.71 14.7104C12.66 14.7504 12.61 14.7903 12.56 14.8303C12.5 14.8703 12.44 14.9004 12.38 14.9204C12.32 14.9504 12.26 14.9704 12.2 14.9804C12.13 14.9904 12.07 15.0004 12 15.0004Z" fill="#071437" fill-opacity="0.6"/>
<path d="M15.5 15.0005C15.24 15.0005 14.98 14.8905 14.79 14.7105C14.61 14.5205 14.5 14.2605 14.5 14.0005C14.5 13.7405 14.61 13.4805 14.79 13.2905C14.89 13.2005 14.99 13.1305 15.12 13.0805C15.3 13.0005 15.5 12.9805 15.7 13.0205C15.76 13.0305 15.82 13.0505 15.88 13.0805C15.94 13.1005 16 13.1305 16.06 13.1705C16.11 13.2105 16.16 13.2505 16.21 13.2905C16.39 13.4805 16.5 13.7405 16.5 14.0005C16.5 14.2605 16.39 14.5205 16.21 14.7105C16.16 14.7505 16.11 14.7905 16.06 14.8305C16 14.8705 15.94 14.9005 15.88 14.9205C15.82 14.9505 15.76 14.9705 15.7 14.9805C15.63 14.9905 15.56 15.0005 15.5 15.0005Z" fill="#071437" fill-opacity="0.6"/>
<path d="M8.5 18.5C8.37 18.5 8.24 18.47 8.12 18.42C7.99 18.37 7.89 18.3 7.79 18.21C7.61 18.02 7.5 17.76 7.5 17.5C7.5 17.24 7.61 16.98 7.79 16.79C7.89 16.7 7.99 16.63 8.12 16.58C8.3 16.5 8.5 16.48 8.7 16.52C8.76 16.53 8.82 16.55 8.88 16.58C8.94 16.6 9 16.63 9.06 16.67C9.11 16.71 9.16 16.75 9.21 16.79C9.39 16.98 9.5 17.24 9.5 17.5C9.5 17.76 9.39 18.02 9.21 18.21C9.16 18.25 9.11 18.3 9.06 18.33C9 18.37 8.94 18.4 8.88 18.42C8.82 18.45 8.76 18.47 8.7 18.48C8.63 18.49 8.57 18.5 8.5 18.5Z" fill="#071437" fill-opacity="0.6"/>
<path d="M12 18.5002C11.74 18.5002 11.48 18.3902 11.29 18.2102C11.11 18.0202 11 17.7602 11 17.5002C11 17.2402 11.11 16.9802 11.29 16.7902C11.66 16.4202 12.34 16.4202 12.71 16.7902C12.89 16.9802 13 17.2402 13 17.5002C13 17.7602 12.89 18.0202 12.71 18.2102C12.52 18.3902 12.26 18.5002 12 18.5002Z" fill="#071437" fill-opacity="0.6"/>
<path d="M15.5 18.5002C15.24 18.5002 14.98 18.3902 14.79 18.2102C14.61 18.0202 14.5 17.7602 14.5 17.5002C14.5 17.2402 14.61 16.9802 14.79 16.7902C15.16 16.4202 15.84 16.4202 16.21 16.7902C16.39 16.9802 16.5 17.2402 16.5 17.5002C16.5 17.7602 16.39 18.0202 16.21 18.2102C16.02 18.3902 15.76 18.5002 15.5 18.5002Z" fill="#071437" fill-opacity="0.6"/>
</svg>
