<svg width="23" height="23" viewBox="0 0 23 23" fill="none" xmlns="http://www.w3.org/2000/svg">
<path opacity="0.4" d="M20.758 10.0043L19.8188 14.0101C19.0138 17.4697 17.423 18.8688 14.433 18.5813C13.9538 18.543 13.4363 18.4568 12.8805 18.3226L11.2705 17.9393C7.27425 16.9905 6.038 15.0163 6.97716 11.0105L7.91633 6.99509C8.108 6.18051 8.338 5.47134 8.6255 4.88676C9.74675 2.56759 11.6538 1.94467 14.8547 2.70176L16.4551 3.07551C20.4705 4.01467 21.6972 5.99842 20.758 10.0043Z" fill="#071437" fill-opacity="0.6"/>
<path d="M14.4326 18.5818C13.8384 18.9843 13.0909 19.3197 12.1805 19.6168L10.6663 20.1151C6.86175 21.3418 4.85883 20.3164 3.62258 16.5118L2.39592 12.7264C1.16925 8.92179 2.18508 6.90929 5.98967 5.68262L7.50383 5.18429C7.89675 5.05971 8.2705 4.95429 8.62508 4.88721C8.33758 5.47179 8.10758 6.18096 7.91592 6.99554L6.97675 11.011C6.03758 15.0168 7.27383 16.991 11.2701 17.9397L12.8801 18.323C13.4359 18.4572 13.9534 18.5435 14.4326 18.5818Z" fill="#071437" fill-opacity="0.6"/>
</svg>
